<svg width="104" height="24" viewBox="0 0 104 24" fill="none" xmlns="http://www.w3.org/2000/svg">
<path fill-rule="evenodd" clip-rule="evenodd" d="M11.6646 1.32918C11.8757 1.22361 12.1243 1.22361 12.3354 1.32918L22.3354 6.32918C22.5895 6.45622 22.75 6.71592 22.75 7V17C22.75 17.2841 22.5895 17.5438 22.3354 17.6708L12.3354 22.6708C12.1243 22.7764 11.8757 22.7764 11.6646 22.6708L1.66459 17.6708C1.4105 17.5438 1.25 17.2841 1.25 17V7C1.25 6.71592 1.4105 6.45622 1.66459 6.32918L11.6646 1.32918ZM2.75 7.46353V16.5365L12 21.1615L21.25 16.5365V7.46353L12 2.83853L2.75 7.46353Z" fill="#309975"/>
<path fill-rule="evenodd" clip-rule="evenodd" d="M1.32934 6.66463C1.51459 6.29415 1.96509 6.14398 2.33557 6.32922L12.3356 11.3292C12.7061 11.5145 12.8562 11.965 12.671 12.3355C12.4857 12.7059 12.0352 12.8561 11.6648 12.6709L1.66475 7.67086C1.29427 7.48562 1.1441 7.03512 1.32934 6.66463Z" fill="#309975"/>
<path fill-rule="evenodd" clip-rule="evenodd" d="M12 11.25C12.4142 11.25 12.75 11.5858 12.75 12V22C12.75 22.4142 12.4142 22.75 12 22.75C11.5858 22.75 11.25 22.4142 11.25 22V12C11.25 11.5858 11.5858 11.25 12 11.25Z" fill="#309975"/>
<path fill-rule="evenodd" clip-rule="evenodd" d="M22.671 6.66463C22.8562 7.03512 22.7061 7.48562 22.3356 7.67086L12.3356 12.6709C11.9651 12.8561 11.5146 12.7059 11.3293 12.3355C11.1441 11.965 11.2943 11.5145 11.6648 11.3292L21.6648 6.32922C22.0352 6.14398 22.4857 6.29415 22.671 6.66463Z" fill="#309975"/>
<path fill-rule="evenodd" clip-rule="evenodd" d="M17.671 4.16463C17.8562 4.53512 17.7061 4.98562 17.3356 5.17086L7.33557 10.1709C6.96509 10.3561 6.51459 10.2059 6.32934 9.83545C6.1441 9.46497 6.29427 9.01446 6.66475 8.82922L16.6648 3.82922C17.0352 3.64398 17.4857 3.79415 17.671 4.16463Z" fill="#309975"/>
<path d="M37.8806 16.13C36.7193 16.13 35.8353 15.818 35.2286 15.194C34.6306 14.57 34.31 13.7077 34.2666 12.607C34.258 12.373 34.2536 11.9917 34.2536 11.463C34.2536 10.9257 34.258 10.5357 34.2666 10.293C34.31 9.201 34.635 8.343 35.2416 7.719C35.8483 7.08633 36.728 6.77 37.8806 6.77C38.652 6.77 39.3063 6.90867 39.8436 7.186C40.381 7.45467 40.7883 7.81 41.0656 8.252C41.343 8.694 41.4946 9.16633 41.5206 9.669V9.695C41.5206 9.76433 41.4903 9.825 41.4296 9.877C41.3776 9.92033 41.317 9.942 41.2476 9.942H40.5326C40.3593 9.942 40.251 9.84233 40.2076 9.643C40.0603 8.993 39.796 8.538 39.4146 8.278C39.0333 8.00933 38.522 7.875 37.8806 7.875C36.39 7.875 35.6186 8.70267 35.5666 10.358C35.558 10.592 35.5536 10.9517 35.5536 11.437C35.5536 11.9223 35.558 12.2907 35.5666 12.542C35.6186 14.1973 36.39 15.025 37.8806 15.025C38.522 15.025 39.0333 14.895 39.4146 14.635C39.8046 14.3663 40.069 13.907 40.2076 13.257C40.2336 13.1443 40.2726 13.0663 40.3246 13.023C40.3766 12.9797 40.446 12.958 40.5326 12.958H41.2476C41.3256 12.958 41.3906 12.984 41.4426 13.036C41.5033 13.0793 41.5293 13.14 41.5206 13.218C41.4946 13.7293 41.343 14.206 41.0656 14.648C40.7883 15.09 40.381 15.4497 39.8436 15.727C39.3063 15.9957 38.652 16.13 37.8806 16.13ZM44.9788 16.13C44.5542 16.13 44.1598 16.0433 43.7958 15.87C43.4318 15.6967 43.1415 15.4627 42.9248 15.168C42.7168 14.8647 42.6128 14.531 42.6128 14.167C42.6128 13.595 42.8468 13.127 43.3148 12.763C43.7915 12.3903 44.4328 12.1477 45.2388 12.035L47.1758 11.762V11.385C47.1758 10.501 46.6688 10.059 45.6548 10.059C45.2735 10.059 44.9615 10.1413 44.7188 10.306C44.4762 10.462 44.2942 10.6483 44.1728 10.865C44.1468 10.943 44.1122 10.9993 44.0688 11.034C44.0342 11.0687 43.9822 11.086 43.9128 11.086H43.3538C43.2758 11.086 43.2065 11.06 43.1458 11.008C43.0938 10.9473 43.0678 10.878 43.0678 10.8C43.0765 10.592 43.1718 10.358 43.3538 10.098C43.5445 9.82933 43.8348 9.59967 44.2248 9.409C44.6148 9.20967 45.0958 9.11 45.6678 9.11C46.6385 9.11 47.3362 9.33967 47.7608 9.799C48.1855 10.2497 48.3978 10.813 48.3978 11.489V15.701C48.3978 15.7877 48.3675 15.8613 48.3068 15.922C48.2548 15.974 48.1855 16 48.0988 16H47.5008C47.4142 16 47.3405 15.974 47.2798 15.922C47.2278 15.8613 47.2018 15.7877 47.2018 15.701V15.142C47.0112 15.4193 46.7338 15.6533 46.3698 15.844C46.0058 16.0347 45.5422 16.13 44.9788 16.13ZM45.2518 15.155C45.8152 15.155 46.2745 14.973 46.6298 14.609C46.9938 14.2363 47.1758 13.7033 47.1758 13.01V12.646L45.6678 12.867C45.0525 12.9537 44.5888 13.101 44.2768 13.309C43.9648 13.5083 43.8088 13.764 43.8088 14.076C43.8088 14.4227 43.9518 14.6913 44.2378 14.882C44.5238 15.064 44.8618 15.155 45.2518 15.155ZM56.9227 9.24C56.992 9.24 57.0527 9.266 57.1047 9.318C57.1567 9.36133 57.1827 9.41767 57.1827 9.487V15.714C57.1827 15.8007 57.1567 15.87 57.1047 15.922C57.0527 15.974 56.9877 16 56.9097 16H56.2727C56.186 16 56.1167 15.974 56.0647 15.922C56.0127 15.87 55.9867 15.8007 55.9867 15.714V11.437L54.3227 14.583C54.262 14.6957 54.2014 14.7823 54.1407 14.843C54.0887 14.895 54.0064 14.921 53.8937 14.921H53.5557C53.4517 14.921 53.3694 14.895 53.3087 14.843C53.2567 14.791 53.196 14.7043 53.1267 14.583L51.4757 11.515V15.714C51.4757 15.8007 51.4497 15.87 51.3977 15.922C51.3457 15.974 51.2764 16 51.1897 16H50.5527C50.466 16 50.3967 15.974 50.3447 15.922C50.2927 15.87 50.2667 15.8007 50.2667 15.714V9.487C50.2667 9.42633 50.2927 9.37 50.3447 9.318C50.3967 9.266 50.4574 9.24 50.5267 9.24H51.1897C51.3197 9.24 51.428 9.30933 51.5147 9.448L53.7247 13.582L55.9477 9.448C56.017 9.30933 56.1254 9.24 56.2727 9.24H56.9227ZM61.897 16.13C60.9437 16.13 60.2027 15.8613 59.674 15.324C59.154 14.7867 58.8767 14.0717 58.842 13.179L58.829 12.62L58.842 12.061C58.8767 11.177 59.1583 10.4663 59.687 9.929C60.2157 9.383 60.9523 9.11 61.897 9.11C62.8417 9.11 63.5783 9.383 64.107 9.929C64.6357 10.4663 64.9173 11.177 64.952 12.061C64.9607 12.1563 64.965 12.3427 64.965 12.62C64.965 12.8973 64.9607 13.0837 64.952 13.179C64.9173 14.0717 64.6357 14.7867 64.107 15.324C63.587 15.8613 62.8503 16.13 61.897 16.13ZM61.897 15.129C62.443 15.129 62.872 14.9557 63.184 14.609C63.5047 14.2623 63.678 13.764 63.704 13.114C63.7127 13.0273 63.717 12.8627 63.717 12.62C63.717 12.3773 63.7127 12.2127 63.704 12.126C63.678 11.476 63.5047 10.9777 63.184 10.631C62.872 10.2843 62.443 10.111 61.897 10.111C61.351 10.111 60.9177 10.2843 60.597 10.631C60.2763 10.9777 60.1073 11.476 60.09 12.126L60.077 12.62L60.09 13.114C60.1073 13.764 60.2763 14.2623 60.597 14.609C60.9177 14.9557 61.351 15.129 61.897 15.129ZM66.8919 16C66.8052 16 66.7315 15.974 66.6709 15.922C66.6189 15.8613 66.5929 15.7877 66.5929 15.701V9.539C66.5929 9.45233 66.6189 9.383 66.6709 9.331C66.7315 9.27033 66.8052 9.24 66.8919 9.24H69.5959C70.3932 9.24 70.9999 9.40467 71.4159 9.734C71.8405 10.0547 72.0529 10.4967 72.0529 11.06C72.0529 11.4327 71.9835 11.723 71.8449 11.931C71.7062 12.1303 71.4939 12.3037 71.2079 12.451C71.5199 12.581 71.7625 12.7977 71.9359 13.101C72.1179 13.4043 72.2089 13.7293 72.2089 14.076C72.2089 14.7 71.9879 15.1767 71.5459 15.506C71.1125 15.8353 70.4972 16 69.6999 16H66.8919ZM69.5179 12.113C69.9425 12.113 70.2762 12.022 70.5189 11.84C70.7615 11.658 70.8829 11.4023 70.8829 11.073C70.8829 10.7523 70.7659 10.527 70.5319 10.397C70.2979 10.2583 69.9599 10.189 69.5179 10.189H67.7889V12.113H69.5179ZM69.5959 15.051C70.0292 15.051 70.3672 14.9687 70.6099 14.804C70.8612 14.6393 70.9869 14.3967 70.9869 14.076C70.9869 13.7293 70.8742 13.478 70.6489 13.322C70.4235 13.1573 70.0725 13.075 69.5959 13.075H67.7889V15.051H69.5959ZM74.179 16C74.0923 16 74.0186 15.974 73.958 15.922C73.906 15.8613 73.88 15.7877 73.88 15.701V9.539C73.88 9.45233 73.906 9.383 73.958 9.331C74.0186 9.27033 74.0923 9.24 74.179 9.24H74.803C74.8896 9.24 74.959 9.27033 75.011 9.331C75.0716 9.383 75.102 9.45233 75.102 9.539V11.45H76.454C77.312 11.45 77.949 11.6537 78.365 12.061C78.7896 12.4597 79.002 13.0273 79.002 13.764C79.002 14.5267 78.7766 15.09 78.326 15.454C77.884 15.818 77.208 16 76.298 16H74.179ZM80.224 16C80.1373 16 80.0636 15.974 80.003 15.922C79.951 15.8613 79.925 15.7877 79.925 15.701V9.539C79.925 9.45233 79.951 9.383 80.003 9.331C80.0636 9.27033 80.1373 9.24 80.224 9.24H80.848C80.9346 9.24 81.004 9.27033 81.056 9.331C81.1166 9.383 81.147 9.45233 81.147 9.539V15.701C81.147 15.7877 81.1166 15.8613 81.056 15.922C81.004 15.974 80.9346 16 80.848 16H80.224ZM76.337 15.025C76.8743 15.025 77.26 14.9297 77.494 14.739C77.7366 14.5483 77.858 14.2233 77.858 13.764C77.858 13.3047 77.7366 12.9667 77.494 12.75C77.26 12.5333 76.8743 12.425 76.337 12.425H75.089V15.025H76.337ZM83.3831 16C83.2964 16 83.2227 15.974 83.1621 15.922C83.1101 15.8613 83.0841 15.7877 83.0841 15.701V9.539C83.0841 9.45233 83.1101 9.383 83.1621 9.331C83.2227 9.27033 83.2964 9.24 83.3831 9.24H86.0871C86.8844 9.24 87.4911 9.40467 87.9071 9.734C88.3317 10.0547 88.5441 10.4967 88.5441 11.06C88.5441 11.4327 88.4747 11.723 88.3361 11.931C88.1974 12.1303 87.9851 12.3037 87.6991 12.451C88.0111 12.581 88.2537 12.7977 88.4271 13.101C88.6091 13.4043 88.7001 13.7293 88.7001 14.076C88.7001 14.7 88.4791 15.1767 88.0371 15.506C87.6037 15.8353 86.9884 16 86.1911 16H83.3831ZM86.0091 12.113C86.4337 12.113 86.7674 12.022 87.0101 11.84C87.2527 11.658 87.3741 11.4023 87.3741 11.073C87.3741 10.7523 87.2571 10.527 87.0231 10.397C86.7891 10.2583 86.4511 10.189 86.0091 10.189H84.2801V12.113H86.0091ZM86.0871 15.051C86.5204 15.051 86.8584 14.9687 87.1011 14.804C87.3524 14.6393 87.4781 14.3967 87.4781 14.076C87.4781 13.7293 87.3654 13.478 87.1401 13.322C86.9147 13.1573 86.5637 13.075 86.0871 13.075H84.2801V15.051H86.0871ZM93.1402 16.13C92.1868 16.13 91.4458 15.8613 90.9172 15.324C90.3972 14.7867 90.1198 14.0717 90.0852 13.179L90.0722 12.62L90.0852 12.061C90.1198 11.177 90.4015 10.4663 90.9302 9.929C91.4588 9.383 92.1955 9.11 93.1402 9.11C94.0848 9.11 94.8215 9.383 95.3502 9.929C95.8788 10.4663 96.1605 11.177 96.1952 12.061C96.2038 12.1563 96.2082 12.3427 96.2082 12.62C96.2082 12.8973 96.2038 13.0837 96.1952 13.179C96.1605 14.0717 95.8788 14.7867 95.3502 15.324C94.8302 15.8613 94.0935 16.13 93.1402 16.13ZM93.1402 15.129C93.6862 15.129 94.1152 14.9557 94.4272 14.609C94.7478 14.2623 94.9212 13.764 94.9472 13.114C94.9558 13.0273 94.9602 12.8627 94.9602 12.62C94.9602 12.3773 94.9558 12.2127 94.9472 12.126C94.9212 11.476 94.7478 10.9777 94.4272 10.631C94.1152 10.2843 93.6862 10.111 93.1402 10.111C92.5942 10.111 92.1608 10.2843 91.8402 10.631C91.5195 10.9777 91.3505 11.476 91.3332 12.126L91.3202 12.62L91.3332 13.114C91.3505 13.764 91.5195 14.2623 91.8402 14.609C92.1608 14.9557 92.5942 15.129 93.1402 15.129ZM100.189 16.13C99.5564 16.13 99.032 16.0303 98.616 15.831C98.2087 15.6317 97.9097 15.389 97.719 15.103C97.537 14.817 97.4417 14.5353 97.433 14.258V14.232C97.433 14.1627 97.459 14.1063 97.511 14.063C97.563 14.0197 97.6237 13.998 97.693 13.998H98.304C98.46 13.998 98.564 14.0803 98.616 14.245C98.7114 14.5743 98.8977 14.8083 99.175 14.947C99.461 15.077 99.8337 15.142 100.293 15.142C100.735 15.142 101.099 15.051 101.385 14.869C101.671 14.687 101.814 14.4183 101.814 14.063C101.814 13.699 101.71 13.4303 101.502 13.257C101.303 13.075 100.991 12.984 100.566 12.984H99.851C99.773 12.984 99.708 12.958 99.656 12.906C99.604 12.854 99.578 12.7847 99.578 12.698V12.347C99.578 12.2603 99.604 12.191 99.656 12.139C99.708 12.087 99.773 12.061 99.851 12.061H100.488C101.225 12.061 101.593 11.7707 101.593 11.19C101.593 10.878 101.48 10.618 101.255 10.41C101.038 10.202 100.683 10.098 100.189 10.098C99.7124 10.098 99.3657 10.1803 99.149 10.345C98.941 10.501 98.7894 10.7523 98.694 11.099C98.6594 11.1857 98.616 11.2507 98.564 11.294C98.5207 11.3287 98.4557 11.346 98.369 11.346H97.784C97.706 11.346 97.641 11.3243 97.589 11.281C97.537 11.229 97.511 11.1683 97.511 11.099C97.5197 10.7437 97.6237 10.4143 97.823 10.111C98.0224 9.80767 98.3214 9.565 98.72 9.383C99.1187 9.201 99.6084 9.11 100.189 9.11C100.796 9.11 101.294 9.20533 101.684 9.396C102.074 9.58667 102.356 9.825 102.529 10.111C102.702 10.397 102.789 10.696 102.789 11.008C102.789 11.3633 102.728 11.6537 102.607 11.879C102.494 12.0957 102.286 12.2777 101.983 12.425C102.356 12.5637 102.62 12.7803 102.776 13.075C102.941 13.3697 103.023 13.7293 103.023 14.154C103.023 14.7867 102.763 15.2763 102.243 15.623C101.723 15.961 101.038 16.13 100.189 16.13Z" fill="#2F323D"/>
</svg>
