<svg width="151" height="24" viewBox="0 0 151 24" fill="none" xmlns="http://www.w3.org/2000/svg">
<path fill-rule="evenodd" clip-rule="evenodd" d="M13.1472 18.2354C13.0192 18.261 12.8867 18.2528 12.7628 18.2115L9.76283 17.2115C9.36987 17.0805 9.1575 16.6558 9.28849 16.2628C9.41947 15.8699 9.84421 15.6575 10.2372 15.7885L13.0486 16.7256L13.1785 16.6998C13.386 16.6587 13.6835 16.6 14.0435 16.5296C14.7634 16.3887 15.7342 16.2008 16.7368 16.0128C17.7386 15.825 18.7756 15.6364 19.6267 15.4946C20.442 15.3587 21.1726 15.25 21.5 15.25C21.8668 15.25 22.2527 15.3417 22.5564 15.6074C22.8732 15.8847 23 16.2631 23 16.625C23 17.2917 22.5879 17.9727 22.0303 18.5303C21.4988 19.0618 20.3317 20.0984 18.9027 21.0077C17.4946 21.9038 15.7193 22.75 14 22.75C12.373 22.75 11.0272 22.3413 9.88783 21.9615C9.77776 21.9248 9.67051 21.8888 9.56581 21.8536C8.54574 21.511 7.76858 21.25 7 21.25H2.00055L2 20.5L2.00003 19.75H7C8.03069 19.75 9.05304 20.096 10.0212 20.4237C10.1356 20.4624 10.2493 20.5009 10.3622 20.5385C11.4728 20.9087 12.627 21.25 14 21.25C15.2807 21.25 16.7554 20.5962 18.0973 19.7423C19.4183 18.9016 20.5012 17.9382 20.9697 17.4697C21.1774 17.262 21.3166 17.0704 21.4007 16.9127C21.4351 16.8482 21.4578 16.7941 21.4727 16.7505C21.2717 16.7576 20.7042 16.8357 19.8733 16.9742C19.0369 17.1136 18.0114 17.3 17.0132 17.4872C16.0158 17.6742 15.0491 17.8613 14.3315 18.0017C13.9728 18.0719 13.6765 18.1303 13.47 18.1712L13.1472 18.2354ZM21.6061 16.7615C21.6061 16.7615 21.6055 16.7613 21.6043 16.7607L21.6061 16.7615ZM2 20.5L2.00003 19.75C1.58582 19.75 1.25 20.0858 1.25 20.5C1.25 20.9142 1.58633 21.25 2.00055 21.25L2 20.5Z" fill="#309975"/>
<path fill-rule="evenodd" clip-rule="evenodd" d="M4.4971 13.5262C3.68984 13.9875 2.99196 14.5687 2.53033 15.0303C2.23744 15.3232 1.76256 15.3232 1.46967 15.0303C1.17678 14.7374 1.17678 14.2626 1.46967 13.9697C2.00804 13.4313 2.81016 12.7625 3.7529 12.2238C4.68945 11.6886 5.82058 11.25 7 11.25C7.60123 11.25 8.35003 11.3961 9.10911 11.605C9.88105 11.8174 10.7142 12.109 11.5022 12.4306C12.2894 12.7519 13.0456 13.1089 13.6613 13.456C13.9689 13.6294 14.2506 13.8055 14.4873 13.9787C14.7143 14.1448 14.9403 14.337 15.1 14.55C15.4844 15.0625 15.4509 15.6314 15.2843 16.0758C15.1278 16.4931 14.8391 16.8598 14.5784 17.138C14.3088 17.4255 14.0192 17.6703 13.8027 17.8401C13.6931 17.9261 13.5992 17.9952 13.5316 18.0436C13.4978 18.0678 13.4703 18.0869 13.4507 18.1005L13.4271 18.1166L13.4199 18.1214L13.4176 18.123L13.4167 18.1236L13.4163 18.1238C13.4162 18.1239 13.416 18.124 13 17.5L13.416 18.124C13.0714 18.3538 12.6057 18.2607 12.376 17.916C12.1463 17.5716 12.2392 17.1063 12.5833 16.8764C12.5835 16.8763 12.5836 16.8762 12.5837 16.8761L12.584 16.876L12.5858 16.8747L12.5995 16.8654C12.6124 16.8564 12.6326 16.8424 12.6588 16.8236C12.7113 16.786 12.7873 16.7302 12.877 16.6599C13.0589 16.5172 13.2849 16.3245 13.4841 16.112C13.6921 15.8902 13.8253 15.6944 13.8798 15.5492C13.9004 15.4943 13.9029 15.4643 13.903 15.4543C13.9023 15.4531 13.9013 15.4517 13.9 15.45C13.8722 15.413 13.7857 15.324 13.6016 15.1893C13.4271 15.0617 13.1991 14.9174 12.9246 14.7627C12.3763 14.4536 11.6793 14.1231 10.9353 13.8194C10.1921 13.516 9.41583 13.2451 8.7112 13.0513C7.99372 12.8539 7.39877 12.75 7 12.75C6.17942 12.75 5.31055 13.0614 4.4971 13.5262Z" fill="#309975"/>
<path fill-rule="evenodd" clip-rule="evenodd" d="M9 4.75C8.86192 4.75 8.75 4.86192 8.75 5V9C8.75 9.41421 8.41421 9.75 8 9.75C7.58579 9.75 7.25 9.41421 7.25 9V5C7.25 4.03351 8.03348 3.25 9 3.25H21C21.9665 3.25 22.75 4.03351 22.75 5V13C22.75 13.4142 22.4142 13.75 22 13.75C21.5858 13.75 21.25 13.4142 21.25 13V5C21.25 4.86192 21.1381 4.75 21 4.75H9Z" fill="#309975"/>
<path fill-rule="evenodd" clip-rule="evenodd" d="M11.75 4C11.75 3.58579 12.0858 3.25 12.5 3.25H17.5C17.9142 3.25 18.25 3.58579 18.25 4V8.5C18.25 8.91421 17.9142 9.25 17.5 9.25H12.5C12.0858 9.25 11.75 8.91421 11.75 8.5V4ZM13.25 4.75V7.75H16.75V4.75H13.25Z" fill="#309975"/>
<path d="M28.7733 17.807C28.6866 17.807 28.613 17.781 28.5523 17.729C28.5003 17.677 28.4743 17.6033 28.4743 17.508V15.129C28.4743 15.0423 28.5003 14.973 28.5523 14.921C28.613 14.8603 28.6866 14.83 28.7733 14.83H29.0463C29.887 14.83 30.3073 13.218 30.3073 9.994V7.199C30.3073 7.11233 30.3333 7.043 30.3853 6.991C30.446 6.93033 30.5196 6.9 30.6063 6.9H35.6763C35.7716 6.9 35.8453 6.93033 35.8973 6.991C35.958 7.043 35.9883 7.11667 35.9883 7.212V14.83H36.6253C36.712 14.83 36.7856 14.8603 36.8463 14.921C36.907 14.973 36.9373 15.0423 36.9373 15.129V17.508C36.9373 17.5947 36.907 17.664 36.8463 17.716C36.7943 17.7767 36.7206 17.807 36.6253 17.807H35.9623C35.8756 17.807 35.802 17.781 35.7413 17.729C35.6893 17.677 35.6633 17.6033 35.6633 17.508V16H29.7483V17.508C29.7483 17.5947 29.718 17.664 29.6573 17.716C29.6053 17.7767 29.5316 17.807 29.4363 17.807H28.7733ZM34.7143 14.83V8.07H31.5553V10.163C31.5553 11.385 31.486 12.373 31.3473 13.127C31.2086 13.881 30.9963 14.4487 30.7103 14.83H34.7143ZM41.1104 16.13C40.1571 16.13 39.4161 15.8613 38.8874 15.324C38.3674 14.7867 38.0901 14.0717 38.0554 13.179L38.0424 12.62L38.0554 12.061C38.0901 11.177 38.3717 10.4663 38.9004 9.929C39.4291 9.383 40.1657 9.11 41.1104 9.11C42.0551 9.11 42.7917 9.383 43.3204 9.929C43.8491 10.4663 44.1307 11.177 44.1654 12.061C44.1741 12.1563 44.1784 12.3427 44.1784 12.62C44.1784 12.8973 44.1741 13.0837 44.1654 13.179C44.1307 14.0717 43.8491 14.7867 43.3204 15.324C42.8004 15.8613 42.0637 16.13 41.1104 16.13ZM41.1104 15.129C41.6564 15.129 42.0854 14.9557 42.3974 14.609C42.7181 14.2623 42.8914 13.764 42.9174 13.114C42.9261 13.0273 42.9304 12.8627 42.9304 12.62C42.9304 12.3773 42.9261 12.2127 42.9174 12.126C42.8914 11.476 42.7181 10.9777 42.3974 10.631C42.0854 10.2843 41.6564 10.111 41.1104 10.111C40.5644 10.111 40.1311 10.2843 39.8104 10.631C39.4897 10.9777 39.3207 11.476 39.3034 12.126L39.2904 12.62L39.3034 13.114C39.3207 13.764 39.4897 14.2623 39.8104 14.609C40.1311 14.9557 40.5644 15.129 41.1104 15.129ZM48.5362 16.13C47.6089 16.13 46.8809 15.87 46.3522 15.35C45.8322 14.8213 45.5549 14.0847 45.5202 13.14L45.5072 12.62L45.5202 12.1C45.5549 11.1553 45.8322 10.423 46.3522 9.903C46.8809 9.37433 47.6089 9.11 48.5362 9.11C49.1602 9.11 49.6889 9.22267 50.1222 9.448C50.5556 9.67333 50.8762 9.95067 51.0842 10.28C51.3009 10.6093 51.4179 10.9387 51.4352 11.268C51.4439 11.3547 51.4179 11.424 51.3572 11.476C51.2966 11.528 51.2229 11.554 51.1362 11.554H50.5122C50.4256 11.554 50.3606 11.5367 50.3172 11.502C50.2739 11.4673 50.2306 11.398 50.1872 11.294C50.0399 10.878 49.8319 10.5833 49.5632 10.41C49.2946 10.228 48.9566 10.137 48.5492 10.137C48.0119 10.137 47.5829 10.306 47.2622 10.644C46.9502 10.9733 46.7812 11.4803 46.7552 12.165L46.7422 12.633L46.7552 13.075C46.7812 13.7683 46.9502 14.2797 47.2622 14.609C47.5742 14.9383 48.0032 15.103 48.5492 15.103C48.9566 15.103 49.2946 15.0163 49.5632 14.843C49.8319 14.661 50.0399 14.362 50.1872 13.946C50.2306 13.842 50.2739 13.7727 50.3172 13.738C50.3606 13.6947 50.4256 13.673 50.5122 13.673H51.1362C51.2229 13.673 51.2966 13.7033 51.3572 13.764C51.4179 13.816 51.4439 13.8853 51.4352 13.972C51.4179 14.2927 51.3009 14.622 51.0842 14.96C50.8762 15.2893 50.5556 15.5667 50.1222 15.792C49.6976 16.0173 49.1689 16.13 48.5362 16.13ZM55.0461 16C54.9594 16 54.8858 15.974 54.8251 15.922C54.7731 15.8613 54.7471 15.7877 54.7471 15.701V10.28H52.4851C52.3984 10.28 52.3248 10.254 52.2641 10.202C52.2121 10.1413 52.1861 10.0677 52.1861 9.981V9.539C52.1861 9.45233 52.2121 9.383 52.2641 9.331C52.3248 9.27033 52.3984 9.24 52.4851 9.24H58.2051C58.2918 9.24 58.3611 9.27033 58.4131 9.331C58.4738 9.383 58.5041 9.45233 58.5041 9.539V9.981C58.5041 10.0677 58.4738 10.1413 58.4131 10.202C58.3611 10.254 58.2918 10.28 58.2051 10.28H55.9431V15.701C55.9431 15.7877 55.9171 15.8613 55.8651 15.922C55.8131 15.974 55.7438 16 55.6571 16H55.0461ZM61.5164 16.13C61.0918 16.13 60.6974 16.0433 60.3334 15.87C59.9694 15.6967 59.6791 15.4627 59.4624 15.168C59.2544 14.8647 59.1504 14.531 59.1504 14.167C59.1504 13.595 59.3844 13.127 59.8524 12.763C60.3291 12.3903 60.9704 12.1477 61.7764 12.035L63.7134 11.762V11.385C63.7134 10.501 63.2064 10.059 62.1924 10.059C61.8111 10.059 61.4991 10.1413 61.2564 10.306C61.0138 10.462 60.8318 10.6483 60.7104 10.865C60.6844 10.943 60.6498 10.9993 60.6064 11.034C60.5718 11.0687 60.5198 11.086 60.4504 11.086H59.8914C59.8134 11.086 59.7441 11.06 59.6834 11.008C59.6314 10.9473 59.6054 10.878 59.6054 10.8C59.6141 10.592 59.7094 10.358 59.8914 10.098C60.0821 9.82933 60.3724 9.59967 60.7624 9.409C61.1524 9.20967 61.6334 9.11 62.2054 9.11C63.1761 9.11 63.8738 9.33967 64.2984 9.799C64.7231 10.2497 64.9354 10.813 64.9354 11.489V15.701C64.9354 15.7877 64.9051 15.8613 64.8444 15.922C64.7924 15.974 64.7231 16 64.6364 16H64.0384C63.9518 16 63.8781 15.974 63.8174 15.922C63.7654 15.8613 63.7394 15.7877 63.7394 15.701V15.142C63.5488 15.4193 63.2714 15.6533 62.9074 15.844C62.5434 16.0347 62.0798 16.13 61.5164 16.13ZM61.7894 15.155C62.3528 15.155 62.8121 14.973 63.1674 14.609C63.5314 14.2363 63.7134 13.7033 63.7134 13.01V12.646L62.2054 12.867C61.5901 12.9537 61.1264 13.101 60.8144 13.309C60.5024 13.5083 60.3464 13.764 60.3464 14.076C60.3464 14.4227 60.4894 14.6913 60.7754 14.882C61.0614 15.064 61.3994 15.155 61.7894 15.155ZM67.1033 16C67.0166 16 66.943 15.974 66.8823 15.922C66.8303 15.8613 66.8043 15.7877 66.8043 15.701V9.539C66.8043 9.45233 66.8303 9.383 66.8823 9.331C66.943 9.27033 67.0166 9.24 67.1033 9.24H69.8073C70.6046 9.24 71.2113 9.40467 71.6273 9.734C72.052 10.0547 72.2643 10.4967 72.2643 11.06C72.2643 11.4327 72.195 11.723 72.0563 11.931C71.9176 12.1303 71.7053 12.3037 71.4193 12.451C71.7313 12.581 71.974 12.7977 72.1473 13.101C72.3293 13.4043 72.4203 13.7293 72.4203 14.076C72.4203 14.7 72.1993 15.1767 71.7573 15.506C71.324 15.8353 70.7086 16 69.9113 16H67.1033ZM69.7293 12.113C70.154 12.113 70.4876 12.022 70.7303 11.84C70.973 11.658 71.0943 11.4023 71.0943 11.073C71.0943 10.7523 70.9773 10.527 70.7433 10.397C70.5093 10.2583 70.1713 10.189 69.7293 10.189H68.0003V12.113H69.7293ZM69.8073 15.051C70.2406 15.051 70.5786 14.9687 70.8213 14.804C71.0726 14.6393 71.1983 14.3967 71.1983 14.076C71.1983 13.7293 71.0856 13.478 70.8603 13.322C70.635 13.1573 70.284 13.075 69.8073 13.075H68.0003V15.051H69.8073ZM79.7334 15.623C79.7767 15.675 79.7984 15.7313 79.7984 15.792C79.7984 15.8527 79.7724 15.9047 79.7204 15.948C79.6771 15.9827 79.6164 16 79.5384 16H78.7454C78.6067 16 78.4941 15.935 78.4074 15.805L76.5224 13.088H75.3004V15.701C75.3004 15.7877 75.2701 15.8613 75.2094 15.922C75.1574 15.974 75.0881 16 75.0014 16H74.3904C74.3037 16 74.2301 15.974 74.1694 15.922C74.1174 15.8613 74.0914 15.7877 74.0914 15.701V9.539C74.0914 9.45233 74.1174 9.383 74.1694 9.331C74.2301 9.27033 74.3037 9.24 74.3904 9.24H75.0014C75.0881 9.24 75.1574 9.27033 75.2094 9.331C75.2701 9.383 75.3004 9.45233 75.3004 9.539V12.035H76.4964L78.2384 9.435C78.3424 9.305 78.4594 9.24 78.5894 9.24H79.2654C79.3434 9.24 79.4084 9.26167 79.4604 9.305C79.5124 9.33967 79.5384 9.38733 79.5384 9.448C79.5384 9.49133 79.5167 9.54333 79.4734 9.604L77.5364 12.477L79.7334 15.623ZM82.9461 16.13C82.5215 16.13 82.1271 16.0433 81.7631 15.87C81.3991 15.6967 81.1088 15.4627 80.8921 15.168C80.6841 14.8647 80.5801 14.531 80.5801 14.167C80.5801 13.595 80.8141 13.127 81.2821 12.763C81.7588 12.3903 82.4001 12.1477 83.2061 12.035L85.1431 11.762V11.385C85.1431 10.501 84.6361 10.059 83.6221 10.059C83.2408 10.059 82.9288 10.1413 82.6861 10.306C82.4435 10.462 82.2615 10.6483 82.1401 10.865C82.1141 10.943 82.0795 10.9993 82.0361 11.034C82.0015 11.0687 81.9495 11.086 81.8801 11.086H81.3211C81.2431 11.086 81.1738 11.06 81.1131 11.008C81.0611 10.9473 81.0351 10.878 81.0351 10.8C81.0438 10.592 81.1391 10.358 81.3211 10.098C81.5118 9.82933 81.8021 9.59967 82.1921 9.409C82.5821 9.20967 83.0631 9.11 83.6351 9.11C84.6058 9.11 85.3035 9.33967 85.7281 9.799C86.1528 10.2497 86.3651 10.813 86.3651 11.489V15.701C86.3651 15.7877 86.3348 15.8613 86.2741 15.922C86.2221 15.974 86.1528 16 86.0661 16H85.4681C85.3815 16 85.3078 15.974 85.2471 15.922C85.1951 15.8613 85.1691 15.7877 85.1691 15.701V15.142C84.9785 15.4193 84.7011 15.6533 84.3371 15.844C83.9731 16.0347 83.5095 16.13 82.9461 16.13ZM83.2191 15.155C83.7825 15.155 84.2418 14.973 84.5971 14.609C84.9611 14.2363 85.1431 13.7033 85.1431 13.01V12.646L83.6351 12.867C83.0198 12.9537 82.5561 13.101 82.2441 13.309C81.9321 13.5083 81.7761 13.764 81.7761 14.076C81.7761 14.4227 81.9191 14.6913 82.2051 14.882C82.4911 15.064 82.8291 15.155 83.2191 15.155ZM91.7195 16C91.6328 16 91.5592 15.974 91.4985 15.922C91.4465 15.8613 91.4205 15.7877 91.4205 15.701V9.539C91.4205 9.45233 91.4465 9.383 91.4985 9.331C91.5592 9.27033 91.6328 9.24 91.7195 9.24H96.8805C96.9672 9.24 97.0365 9.27033 97.0885 9.331C97.1492 9.383 97.1795 9.45233 97.1795 9.539V15.701C97.1795 15.7877 97.1492 15.8613 97.0885 15.922C97.0365 15.974 96.9672 16 96.8805 16H96.2565C96.1698 16 96.1005 15.974 96.0485 15.922C95.9965 15.8613 95.9705 15.7877 95.9705 15.701V10.28H92.6425V15.701C92.6425 15.7877 92.6122 15.8613 92.5515 15.922C92.4995 15.974 92.4302 16 92.3435 16H91.7195ZM99.4259 18.47C99.3392 18.47 99.2655 18.4397 99.2049 18.379C99.1529 18.327 99.1269 18.2577 99.1269 18.171V9.539C99.1269 9.45233 99.1529 9.383 99.2049 9.331C99.2655 9.27033 99.3392 9.24 99.4259 9.24H100.024C100.111 9.24 100.18 9.27033 100.232 9.331C100.293 9.383 100.323 9.45233 100.323 9.539V10.111C100.808 9.44367 101.519 9.11 102.455 9.11C103.365 9.11 104.045 9.396 104.496 9.968C104.955 10.54 105.202 11.2767 105.237 12.178C105.246 12.2733 105.25 12.4207 105.25 12.62C105.25 12.8193 105.246 12.9667 105.237 13.062C105.202 13.9547 104.955 14.6913 104.496 15.272C104.037 15.844 103.356 16.13 102.455 16.13C101.554 16.13 100.852 15.805 100.349 15.155V18.171C100.349 18.2577 100.323 18.327 100.271 18.379C100.219 18.4397 100.15 18.47 100.063 18.47H99.4259ZM102.182 15.077C102.797 15.077 103.244 14.8863 103.521 14.505C103.807 14.1237 103.963 13.621 103.989 12.997C103.998 12.9103 104.002 12.7847 104.002 12.62C104.002 10.982 103.395 10.163 102.182 10.163C101.584 10.163 101.133 10.3623 100.83 10.761C100.535 11.151 100.375 11.619 100.349 12.165L100.336 12.659L100.349 13.166C100.366 13.6773 100.531 14.1237 100.843 14.505C101.155 14.8863 101.601 15.077 102.182 15.077ZM109.627 16.13C108.674 16.13 107.933 15.8613 107.404 15.324C106.884 14.7867 106.607 14.0717 106.572 13.179L106.559 12.62L106.572 12.061C106.607 11.177 106.888 10.4663 107.417 9.929C107.946 9.383 108.682 9.11 109.627 9.11C110.572 9.11 111.308 9.383 111.837 9.929C112.366 10.4663 112.647 11.177 112.682 12.061C112.691 12.1563 112.695 12.3427 112.695 12.62C112.695 12.8973 112.691 13.0837 112.682 13.179C112.647 14.0717 112.366 14.7867 111.837 15.324C111.317 15.8613 110.58 16.13 109.627 16.13ZM109.627 15.129C110.173 15.129 110.602 14.9557 110.914 14.609C111.235 14.2623 111.408 13.764 111.434 13.114C111.443 13.0273 111.447 12.8627 111.447 12.62C111.447 12.3773 111.443 12.2127 111.434 12.126C111.408 11.476 111.235 10.9777 110.914 10.631C110.602 10.2843 110.173 10.111 109.627 10.111C109.081 10.111 108.648 10.2843 108.327 10.631C108.006 10.9777 107.837 11.476 107.82 12.126L107.807 12.62L107.82 13.114C107.837 13.764 108.006 14.2623 108.327 14.609C108.648 14.9557 109.081 15.129 109.627 15.129ZM113.933 17.43C113.846 17.43 113.773 17.3997 113.712 17.339C113.66 17.287 113.634 17.2177 113.634 17.131V15.259C113.634 15.1723 113.66 15.103 113.712 15.051C113.773 14.9903 113.846 14.96 113.933 14.96H113.998C114.362 14.9513 114.635 14.648 114.817 14.05C115.008 13.452 115.103 12.503 115.103 11.203V9.539C115.103 9.45233 115.129 9.383 115.181 9.331C115.242 9.27033 115.315 9.24 115.402 9.24H119.549C119.636 9.24 119.705 9.27033 119.757 9.331C119.818 9.383 119.848 9.45233 119.848 9.539V14.934H120.459C120.546 14.934 120.615 14.9643 120.667 15.025C120.728 15.077 120.758 15.1463 120.758 15.233V17.131C120.758 17.2177 120.728 17.287 120.667 17.339C120.615 17.3997 120.546 17.43 120.459 17.43H119.848C119.761 17.43 119.688 17.3997 119.627 17.339C119.575 17.287 119.549 17.2177 119.549 17.131V16H114.843V17.131C114.843 17.2177 114.813 17.287 114.752 17.339C114.7 17.3997 114.631 17.43 114.544 17.43H113.933ZM118.639 14.934V10.28H116.286V11.346C116.286 13.0793 116.039 14.284 115.545 14.96L118.639 14.934ZM124.003 16.13C123.578 16.13 123.184 16.0433 122.82 15.87C122.456 15.6967 122.165 15.4627 121.949 15.168C121.741 14.8647 121.637 14.531 121.637 14.167C121.637 13.595 121.871 13.127 122.339 12.763C122.815 12.3903 123.457 12.1477 124.263 12.035L126.2 11.762V11.385C126.2 10.501 125.693 10.059 124.679 10.059C124.297 10.059 123.985 10.1413 123.743 10.306C123.5 10.462 123.318 10.6483 123.197 10.865C123.171 10.943 123.136 10.9993 123.093 11.034C123.058 11.0687 123.006 11.086 122.937 11.086H122.378C122.3 11.086 122.23 11.06 122.17 11.008C122.118 10.9473 122.092 10.878 122.092 10.8C122.1 10.592 122.196 10.358 122.378 10.098C122.568 9.82933 122.859 9.59967 123.249 9.409C123.639 9.20967 124.12 9.11 124.692 9.11C125.662 9.11 126.36 9.33967 126.785 9.799C127.209 10.2497 127.422 10.813 127.422 11.489V15.701C127.422 15.7877 127.391 15.8613 127.331 15.922C127.279 15.974 127.209 16 127.123 16H126.525C126.438 16 126.364 15.974 126.304 15.922C126.252 15.8613 126.226 15.7877 126.226 15.701V15.142C126.035 15.4193 125.758 15.6533 125.394 15.844C125.03 16.0347 124.566 16.13 124.003 16.13ZM124.276 15.155C124.839 15.155 125.298 14.973 125.654 14.609C126.018 14.2363 126.2 13.7033 126.2 13.01V12.646L124.692 12.867C124.076 12.9537 123.613 13.101 123.301 13.309C122.989 13.5083 122.833 13.764 122.833 14.076C122.833 14.4227 122.976 14.6913 123.262 14.882C123.548 15.064 123.886 15.155 124.276 15.155ZM129.59 16C129.503 16 129.429 15.974 129.369 15.922C129.317 15.8613 129.291 15.7877 129.291 15.701V9.539C129.291 9.45233 129.317 9.383 129.369 9.331C129.429 9.27033 129.503 9.24 129.59 9.24H132.294C133.091 9.24 133.698 9.40467 134.114 9.734C134.538 10.0547 134.751 10.4967 134.751 11.06C134.751 11.4327 134.681 11.723 134.543 11.931C134.404 12.1303 134.192 12.3037 133.906 12.451C134.218 12.581 134.46 12.7977 134.634 13.101C134.816 13.4043 134.907 13.7293 134.907 14.076C134.907 14.7 134.686 15.1767 134.244 15.506C133.81 15.8353 133.195 16 132.398 16H129.59ZM132.216 12.113C132.64 12.113 132.974 12.022 133.217 11.84C133.459 11.658 133.581 11.4023 133.581 11.073C133.581 10.7523 133.464 10.527 133.23 10.397C132.996 10.2583 132.658 10.189 132.216 10.189H130.487V12.113H132.216ZM132.294 15.051C132.727 15.051 133.065 14.9687 133.308 14.804C133.559 14.6393 133.685 14.3967 133.685 14.076C133.685 13.7293 133.572 13.478 133.347 13.322C133.121 13.1573 132.77 13.075 132.294 13.075H130.487V15.051H132.294ZM142.337 17.638C142.25 17.638 142.176 17.612 142.116 17.56C142.064 17.508 142.038 17.4343 142.038 17.339V16H136.877C136.79 16 136.716 15.974 136.656 15.922C136.604 15.8613 136.578 15.7877 136.578 15.701V9.539C136.578 9.45233 136.604 9.383 136.656 9.331C136.716 9.27033 136.79 9.24 136.877 9.24H137.501C137.587 9.24 137.657 9.27033 137.709 9.331C137.769 9.383 137.8 9.45233 137.8 9.539V14.96H141.128V9.539C141.128 9.45233 141.154 9.383 141.206 9.331C141.258 9.27033 141.327 9.24 141.414 9.24H142.038C142.124 9.24 142.194 9.27033 142.246 9.331C142.306 9.383 142.337 9.45233 142.337 9.539L142.324 14.96H142.948C143.034 14.96 143.104 14.9903 143.156 15.051C143.216 15.103 143.247 15.1723 143.247 15.259V17.339C143.247 17.4257 143.216 17.495 143.156 17.547C143.104 17.6077 143.034 17.638 142.948 17.638H142.337ZM146.499 16.13C146.074 16.13 145.68 16.0433 145.316 15.87C144.952 15.6967 144.662 15.4627 144.445 15.168C144.237 14.8647 144.133 14.531 144.133 14.167C144.133 13.595 144.367 13.127 144.835 12.763C145.312 12.3903 145.953 12.1477 146.759 12.035L148.696 11.762V11.385C148.696 10.501 148.189 10.059 147.175 10.059C146.794 10.059 146.482 10.1413 146.239 10.306C145.996 10.462 145.814 10.6483 145.693 10.865C145.667 10.943 145.632 10.9993 145.589 11.034C145.554 11.0687 145.502 11.086 145.433 11.086H144.874C144.796 11.086 144.727 11.06 144.666 11.008C144.614 10.9473 144.588 10.878 144.588 10.8C144.597 10.592 144.692 10.358 144.874 10.098C145.065 9.82933 145.355 9.59967 145.745 9.409C146.135 9.20967 146.616 9.11 147.188 9.11C148.159 9.11 148.856 9.33967 149.281 9.799C149.706 10.2497 149.918 10.813 149.918 11.489V15.701C149.918 15.7877 149.888 15.8613 149.827 15.922C149.775 15.974 149.706 16 149.619 16H149.021C148.934 16 148.861 15.974 148.8 15.922C148.748 15.8613 148.722 15.7877 148.722 15.701V15.142C148.531 15.4193 148.254 15.6533 147.89 15.844C147.526 16.0347 147.062 16.13 146.499 16.13ZM146.772 15.155C147.335 15.155 147.795 14.973 148.15 14.609C148.514 14.2363 148.696 13.7033 148.696 13.01V12.646L147.188 12.867C146.573 12.9537 146.109 13.101 145.797 13.309C145.485 13.5083 145.329 13.764 145.329 14.076C145.329 14.4227 145.472 14.6913 145.758 14.882C146.044 15.064 146.382 15.155 146.772 15.155Z" fill="#2F323D"/>
</svg>
