<svg width="112" height="32" viewBox="0 0 112 32" fill="none" xmlns="http://www.w3.org/2000/svg">
<g clip-path="url(#clip0)">
<path d="M7.53451 21.0446C7.82584 20.8915 8.17387 20.8915 8.46519 21.0446L11.8491 22.8237C12.5827 23.2094 13.4402 22.5864 13.3001 21.7695L12.6538 18.0014C12.5982 17.677 12.7057 17.346 12.9414 17.1163L15.679 14.4478C16.2726 13.8692 15.9451 12.8612 15.1248 12.7421L11.3415 12.1923C11.0158 12.145 10.7342 11.9404 10.5886 11.6453L8.89659 8.21698C8.52978 7.47373 7.46993 7.47373 7.10312 8.21698L5.41115 11.6453C5.26549 11.9404 4.98393 12.145 4.65822 12.1923L0.874872 12.7421C0.0546521 12.8612 -0.272858 13.8692 0.320659 14.4478L3.05831 17.1163C3.294 17.346 3.40155 17.677 3.34591 18.0014L2.69964 21.7695C2.55953 22.5864 3.41696 23.2094 4.15059 22.8237L7.53451 21.0446Z" fill="#DAD873"/>
</g>
<g clip-path="url(#clip1)">
<path d="M31.5345 21.0446C31.8258 20.8915 32.1739 20.8915 32.4652 21.0446L35.8491 22.8237C36.5827 23.2094 37.4402 22.5864 37.3001 21.7695L36.6538 18.0014C36.5982 17.677 36.7057 17.346 36.9414 17.1163L39.679 14.4478C40.2726 13.8692 39.9451 12.8612 39.1248 12.7421L35.3415 12.1923C35.0158 12.145 34.7342 11.9404 34.5886 11.6453L32.8966 8.21698C32.5298 7.47373 31.4699 7.47373 31.1031 8.21698L29.4112 11.6453C29.2655 11.9404 28.9839 12.145 28.6582 12.1923L24.8749 12.7421C24.0547 12.8612 23.7271 13.8692 24.3207 14.4478L27.0583 17.1163C27.294 17.346 27.4015 17.677 27.3459 18.0014L26.6996 21.7695C26.5595 22.5864 27.417 23.2094 28.1506 22.8237L31.5345 21.0446Z" fill="#DAD873"/>
</g>
<g clip-path="url(#clip2)">
<path d="M55.5345 21.0446C55.8258 20.8915 56.1739 20.8915 56.4652 21.0446L59.8491 22.8237C60.5827 23.2094 61.4402 22.5864 61.3001 21.7695L60.6538 18.0014C60.5982 17.677 60.7057 17.346 60.9414 17.1163L63.679 14.4478C64.2726 13.8692 63.9451 12.8612 63.1248 12.7421L59.3415 12.1923C59.0158 12.145 58.7342 11.9404 58.5886 11.6453L56.8966 8.21698C56.5298 7.47373 55.4699 7.47373 55.1031 8.21698L53.4112 11.6453C53.2655 11.9404 52.9839 12.145 52.6582 12.1923L48.8749 12.7421C48.0547 12.8612 47.7271 13.8692 48.3207 14.4478L51.0583 17.1163C51.294 17.346 51.4015 17.677 51.3459 18.0014L50.6996 21.7695C50.5595 22.5864 51.417 23.2094 52.1506 22.8237L55.5345 21.0446Z" fill="#DAD873"/>
</g>
<g clip-path="url(#clip3)">
<path d="M73.2391 14.1247L73.2391 14.1247L73.2369 14.1229C72.9903 13.9162 73.0912 13.4872 73.4648 13.4468L77.6424 13.1357L77.9515 13.1127L78.0684 12.8256L79.6424 8.95869C79.7879 8.63142 80.2361 8.66277 80.3533 8.95201L80.3536 8.95273L81.9301 12.8256L82.047 13.1127L82.3561 13.1357L86.5408 13.4473L86.5414 13.4474C86.8876 13.4728 87.0248 13.9027 86.7627 14.1226L86.7607 14.1243L83.5688 16.8301L83.3331 17.0299L83.4064 17.33L84.3983 21.3939C84.4721 21.723 84.1044 21.9802 83.8242 21.8073L80.2626 19.6081L79.9999 19.4459L79.7372 19.6081L76.1752 21.8078L76.1752 21.8078L76.1719 21.8099C75.8735 21.9974 75.5167 21.7246 75.5991 21.4039L75.5991 21.4039L75.6006 21.398L76.5932 17.3302L76.6664 17.0301L76.4307 16.8303L73.2391 14.1247Z" stroke="#DAD873"/>
<path d="M76.1074 17.2117L72.9158 14.5061C72.3121 14.0002 72.6237 13.0272 73.4207 12.9487L77.6053 12.6371L79.1818 8.76419C79.3365 8.40656 79.6688 8.22654 79.9999 8.22412V20.0335L76.4379 22.2332C75.7571 22.6611 74.9199 22.0383 75.1148 21.2795L76.1074 17.2117Z" fill="#DAD873"/>
</g>
<g clip-path="url(#clip4)">
<path d="M99.5866 21.3117L99.0938 21.2272L99.5866 21.3117ZM100.312 21.8388L100.079 21.3963L100.312 21.8388ZM100.103 17.0216L100.452 16.6636L100.103 17.0216ZM100.247 17.4642L100.739 17.5487L100.247 17.4642ZM97.5844 13.4439L97.6563 13.9387L97.5844 13.4439ZM97.3073 14.2968L96.9583 14.6548L97.3073 14.2968ZM101.824 12.6091L101.376 12.3878L101.824 12.6091ZM101.448 12.8826L101.376 12.3878L101.448 12.8826ZM104.448 9.10843L104.897 8.88715L104.448 9.10843ZM103.552 9.10843L104 9.32971L103.552 9.10843ZM106.553 12.8826L106.624 12.3878L106.553 12.8826ZM106.176 12.6091L105.728 12.8303L106.176 12.6091ZM110.693 14.2968L111.042 14.6548L110.693 14.2968ZM110.416 13.4439L110.344 13.9387L110.416 13.4439ZM107.754 17.4642L107.261 17.5487L107.754 17.4642ZM107.897 17.0216L107.548 16.6636L107.897 17.0216ZM107.688 21.8388L107.455 22.2814L107.688 21.8388ZM108.414 21.3117L108.906 21.2272L108.414 21.3117ZM104.233 20.0223L104.465 19.5797L104.233 20.0223ZM103.767 20.0223L104 20.4648L103.767 20.0223ZM104 20.4648L107.455 22.2814L107.921 21.3963L104.465 19.5797L104 20.4648ZM108.906 21.2272L108.246 17.3797L107.261 17.5487L107.921 21.3963L108.906 21.2272ZM108.246 17.3797L111.042 14.6548L110.344 13.9387L107.548 16.6636L108.246 17.3797ZM110.488 12.9491L106.624 12.3878L106.481 13.3774L110.344 13.9387L110.488 12.9491ZM106.624 12.3878L104.897 8.88715L104 9.32971L105.728 12.8303L106.624 12.3878ZM103.103 8.88715L101.376 12.3878L102.272 12.8303L104 9.32971L103.103 8.88715ZM101.376 12.3878L97.5125 12.9491L97.6563 13.9387L101.519 13.3774L101.376 12.3878ZM96.9583 14.6548L99.7537 17.3797L100.452 16.6636L97.6563 13.9387L96.9583 14.6548ZM99.7537 17.3797L99.0938 21.2272L100.079 21.3963L100.739 17.5487L99.7537 17.3797ZM100.545 22.2814L104 20.4648L103.535 19.5797L100.079 21.3963L100.545 22.2814ZM99.0938 21.2272C98.9537 22.0441 99.8111 22.6671 100.545 22.2814L100.079 21.3963V21.3963L99.0938 21.2272ZM99.7537 17.3797L99.7537 17.3797L100.739 17.5487C100.795 17.2243 100.687 16.8933 100.452 16.6636L99.7537 17.3797ZM97.5125 12.9491C96.6923 13.0683 96.3648 14.0763 96.9583 14.6548L97.6563 13.9387H97.6563L97.5125 12.9491ZM101.376 12.3878V12.3878L101.519 13.3774C101.845 13.33 102.127 13.1255 102.272 12.8303L101.376 12.3878ZM104.897 8.88715C104.53 8.1439 103.47 8.1439 103.103 8.88715L104 9.32971L104 9.32971L104.897 8.88715ZM106.624 12.3878L105.728 12.8303C105.873 13.1255 106.155 13.33 106.481 13.3774L106.624 12.3878ZM111.042 14.6548C111.635 14.0763 111.308 13.0683 110.488 12.9491L110.344 13.9387L110.344 13.9387L111.042 14.6548ZM108.246 17.3797V17.3797L107.548 16.6636C107.313 16.8933 107.205 17.2243 107.261 17.5487L108.246 17.3797ZM107.455 22.2814C108.189 22.6671 109.046 22.0441 108.906 21.2272L107.921 21.3963L107.921 21.3963L107.455 22.2814ZM104.465 19.5797C104.174 19.4265 103.826 19.4265 103.535 19.5797L104 20.4648L104.465 19.5797Z" fill="#DAD873"/>
</g>
<defs>
<clipPath id="clip0">
<rect width="16" height="32" fill="white"/>
</clipPath>
<clipPath id="clip1">
<rect width="16" height="32" fill="white" transform="translate(24)"/>
</clipPath>
<clipPath id="clip2">
<rect width="16" height="32" fill="white" transform="translate(48)"/>
</clipPath>
<clipPath id="clip3">
<rect width="16" height="32" fill="white" transform="translate(72)"/>
</clipPath>
<clipPath id="clip4">
<rect width="16" height="32" fill="white" transform="translate(96)"/>
</clipPath>
</defs>
</svg>
