<svg width="42" height="12" viewBox="0 0 42 12" fill="none" xmlns="http://www.w3.org/2000/svg">
<path fill-rule="evenodd" clip-rule="evenodd" d="M41.7638 4.97092C42.0613 5.38795 42.0913 6.04521 41.7755 6.55458C41.4936 7.00951 39.8062 8.75526 39.2571 9.31625C38.7811 9.80353 38.1386 10.2915 37.5063 10.2915H24.2664C22.4771 10.2915 22.3691 9.6972 22.3691 8.35359V2.90319C22.3691 1.53092 22.7826 1.13428 24.0045 1.13428H37.5063C38.1386 1.13428 38.7014 1.45047 39.3477 2.09428C39.8964 2.6406 41.5356 4.65008 41.7638 4.97092Z" fill="#33CCCC"/>
<path fill-rule="evenodd" clip-rule="evenodd" d="M41.7638 4.97092C42.0613 5.38795 42.0913 6.04521 41.7755 6.55458C41.4936 7.00951 39.8062 8.75526 39.2571 9.31625C38.7811 9.80353 38.1386 10.2915 37.5063 10.2915H24.2664C22.4771 10.2915 22.3691 9.6972 22.3691 8.35359V2.90319C22.3691 1.53092 22.7826 1.13428 24.0045 1.13428H37.5063C38.1386 1.13428 38.7014 1.45047 39.3477 2.09428C39.8964 2.6406 41.5356 4.65008 41.7638 4.97092Z" fill="url(#paint0_linear)"/>
<path fill-rule="evenodd" clip-rule="evenodd" d="M25.3706 3.24173V3.20584C25.3706 3.0306 25.3556 2.85738 25.0625 2.85738H23.956C23.6988 2.85738 23.6826 2.9967 23.6826 3.21315V4.65357C24.2212 3.8991 24.8184 3.54854 25.3706 3.24173ZM32.7934 8.44652V8.36918H32.7942V4.90233C32.7942 3.44847 32.1417 2.72161 30.8369 2.72176C30.4753 2.71843 30.1198 2.81362 29.8102 2.9967C29.4996 3.18009 29.2012 3.43625 28.9149 3.76519C28.7742 3.40773 28.5621 3.14447 28.2784 2.9754C27.9947 2.80634 27.6271 2.72179 27.1757 2.72176C26.6532 2.72176 26.0457 2.90108 25.6151 3.24805C25.5188 3.34256 23.6823 4.75853 23.6823 6.21277V8.43231C23.6823 8.5029 23.6476 8.77071 23.9539 8.77071H25.1058C25.4639 8.77071 25.429 8.54099 25.429 8.44652V4.85673C25.6234 4.60409 26.0207 3.98013 26.666 3.98013C26.9136 3.98013 27.092 4.06223 27.201 4.22645C27.3101 4.39067 27.3648 4.66601 27.3653 5.05247V7.85627H27.364V8.43238C27.364 8.50297 27.3292 8.77078 27.6354 8.77078H28.7726C29.131 8.77078 29.096 8.54107 29.096 8.44659V8.36926H29.0973V4.85689C29.3057 4.60424 29.7208 3.98028 30.334 3.98028C30.5863 3.98028 30.7683 4.06239 30.8799 4.2266C30.9915 4.39082 31.0473 4.66616 31.0471 5.05262V7.85642H31.046V8.43254C31.046 8.50313 31.0114 8.77094 31.3178 8.77094H32.4701C32.8284 8.77078 32.7934 8.54099 32.7934 8.44652ZM39.1373 7.03699C38.7278 8.11642 37.7467 8.71966 36.531 8.71966C34.7701 8.71966 33.607 7.54423 33.607 5.78131C33.607 4.03963 34.8145 2.77719 36.4762 2.77719C38.12 2.77719 39.2225 3.89864 39.2925 5.70512C39.3015 5.93593 39.2326 6.13986 38.9382 6.13986H35.2018C35.224 7.10854 35.7007 7.63105 36.5423 7.63105C37.0556 7.63105 37.3597 7.41425 37.6246 6.98937C37.7397 6.8045 37.9757 6.81478 37.9757 6.81478H38.9382C39.0953 6.81467 39.165 6.96507 39.1373 7.03688V7.03699ZM36.4762 3.89795C35.7777 3.89795 35.2905 4.37677 35.2018 5.16081H37.7055C37.639 4.47502 37.2621 3.89795 36.4762 3.89795Z" fill="white"/>
<path fill-rule="evenodd" clip-rule="evenodd" d="M6.87719 1.18406C6.72918 0.953017 6.53718 0.752031 6.31167 0.592061C6.08615 0.43685 5.83851 0.315152 5.57667 0.230918C5.28586 0.138127 4.98548 0.0769961 4.68102 0.0486326C4.33269 0.015078 3.98288 -0.00113311 3.63291 6.14944e-05H0.565744C0.289943 6.14944e-05 0.000842764 0.17751 0.000842764 0.512137V5.38415C0.389383 6.19615 1.14624 7.05821 2.00673 7.47021V6.50396C2.00673 5.9941 2.39869 5.88019 2.56082 5.88019H3.46771C4.71691 5.88019 5.67035 5.6232 6.32804 5.10926C6.98573 4.59604 7.31453 3.83371 7.31453 2.82227C7.3164 2.53002 7.28179 2.23864 7.21152 1.95461C7.14163 1.6823 7.02882 1.42232 6.87719 1.18406ZM5.08986 3.68619C4.98396 3.86625 4.82599 4.01154 4.63594 4.10381C4.42995 4.20008 4.20743 4.25783 3.97981 4.2741C3.73192 4.29573 3.47594 4.30659 3.21186 4.30663H2.35004C2.13923 4.30663 2.00673 4.13851 2.00673 3.89051V1.89861C2.00673 1.67522 2.15541 1.58151 2.33367 1.58151H3.21186C3.49793 1.58151 3.76619 1.5896 4.01668 1.60578C4.24212 1.61585 4.46351 1.66821 4.66884 1.76002C4.85186 1.84536 5.00333 1.98423 5.10238 2.15747C5.20676 2.33563 5.25894 2.58706 5.25902 2.91176C5.25902 3.24143 5.20263 3.49958 5.08986 3.68619ZM2.00673 7.78507C1.06033 7.41463 0.425861 6.97272 0.000842764 6.53463V8.88663C0.000842764 8.88663 -0.0341575 9.27021 0.346954 9.27021H1.68508C2.05216 9.27021 2.00689 8.88663 2.00689 8.88663V7.78507H2.00673ZM20.9706 2.56307H19.7697C19.5256 2.56307 19.3648 2.66357 19.268 2.9265C19.1712 3.18943 17.8983 6.66229 17.8983 6.66229C17.8983 6.66229 16.6807 3.26117 16.5849 2.99781C16.489 2.73446 16.3317 2.56307 16.0482 2.56307H14.9447C14.5555 2.56307 14.5555 2.86261 14.6037 2.98139C14.6429 3.07739 16.154 7.13478 16.7296 8.68046C16.8653 9.04541 16.9189 9.1552 16.9231 9.2904C16.9273 9.4256 16.787 9.70945 16.69 9.87234C16.6455 9.94667 16.5944 10.0171 16.5372 10.0826C17.6656 9.7517 18.966 8.55086 19.6385 7.24994C20.3035 5.43695 21.1805 3.042 21.2185 2.91949C21.2797 2.72105 21.2791 2.56307 20.9706 2.56307ZM15.6678 10.4276C15.5635 10.4258 15.4595 10.4185 15.3561 10.4056C15.2295 10.3891 14.9926 10.4123 14.9926 10.6155V11.5238C14.9926 11.8705 15.1618 11.8936 15.2549 11.9142C15.5352 11.9714 15.821 11.9984 16.1072 11.9949C16.4866 11.9949 16.8167 11.9272 17.0976 11.792C17.3812 11.6546 17.6339 11.4629 17.8408 11.2284C18.0689 10.9673 18.2618 10.6784 18.4144 10.369C18.5821 10.0365 18.743 9.67021 18.8972 9.27013C18.8972 9.27013 18.9634 9.08933 19.0722 8.79314C18.741 9.12072 17.1797 10.571 15.6678 10.4276ZM13.8643 3.64136C13.7991 3.48954 13.7101 3.34864 13.6005 3.22379C13.4913 3.10395 13.3662 2.9989 13.2287 2.91141C13.0802 2.81688 12.9228 2.73674 12.7585 2.67214C12.5907 2.60797 12.4182 2.55651 12.2425 2.51823C12.0426 2.47536 11.8398 2.4469 11.6358 2.43309C11.4154 2.41701 11.1677 2.40891 10.8926 2.40879C9.07332 2.40879 8.0374 2.97205 7.78482 4.09859C7.70268 4.44815 8.05568 4.46869 8.05568 4.46869H9.17486C9.46703 4.46869 9.45447 4.37646 9.59626 4.11764C9.64732 3.9768 9.73922 3.8536 9.86071 3.76315C10.0755 3.60106 10.3974 3.52001 10.8265 3.51998C11.2394 3.51998 11.5393 3.5983 11.7263 3.75492C11.9133 3.91154 12.0234 4.14945 12.0565 4.46869C12.0565 4.83886 11.9387 5.08583 11.4819 5.08583C10.3682 5.04621 9.17148 5.16964 8.49746 5.54819C7.82343 5.92674 7.4424 6.66682 7.4424 7.4616C7.4424 7.78579 7.50155 8.06964 7.61993 8.31318C7.73461 8.55192 7.90417 8.76149 8.11529 8.92537C8.33933 9.09653 8.59612 9.22202 8.87048 9.2944C9.18233 9.37817 9.50452 9.4192 9.82788 9.4163C10.3122 9.4163 10.7402 9.3568 11.1117 9.23779C11.4831 9.11901 12.0579 8.72731 12.1311 8.67017V8.87897C12.1311 9.08587 12.1954 9.2704 12.4474 9.2704H13.7489C14.0123 9.2704 14.0709 9.08587 14.0709 8.85878V4.93112C14.0732 4.68697 14.0566 4.44301 14.0214 4.2013C13.9935 4.00888 13.9407 3.82072 13.8643 3.64136ZM12.0896 7.49227C12.0896 7.49227 11.7535 8.17612 10.5541 8.17612C10.2241 8.17612 9.95587 8.10316 9.74933 7.95726C9.54275 7.81135 9.43954 7.58423 9.43969 7.27596C9.43969 6.87558 9.60758 6.59295 9.94342 6.42811C10.2789 6.26339 10.9506 6.1693 11.454 6.18084C11.9573 6.19238 12.0896 6.50396 12.0896 6.71909V7.49242V7.49227Z" fill="#333333"/>
<defs>
<linearGradient id="paint0_linear" x1="48.4863" y1="3.77828" x2="46.0169" y2="19.0033" gradientUnits="userSpaceOnUse">
<stop offset="0.47231" stop-color="#00CCCC"/>
<stop offset="1" stop-color="#3399FF"/>
</linearGradient>
</defs>
</svg>
